{
  "bpm": 100,
  "notes": [
    {
      "pitch": 40,
      "velocity": 50,
      "channel": 1,
      "time": 0.625,
      "duration": 0.15
    },
    {
      "pitch": 45,
      "velocity": 50,
      "channel": 1,
      "time": 0.625,
      "duration": 0.15
    },
    {
      "pitch": 55,
      "velocity": 50,
      "channel": 1,
      "time": 0.625,
      "duration": 0.15
    },
    {
      "pitch": 60,
      "velocity": 50,
      "channel": 1,
      "time": 0.625,
      "duration": 0.15
    },
    {
      "pitch": 64,
      "velocity": 50,
      "channel": 1,
      "time": 0.625,
      "duration": 0.15
    },
    {
      "pitch": 67,
      "velocity": 50,
      "channel": 1,
      "time": 0.625,
      "duration": 0.15
    },
    {
      "pitch": 76,
      "velocity": 50,
      "channel": 1,
      "time": 0.625,
      "duration": 0.15
    },
    {
      "pitch": 79,
      "velocity": 50,
      "channel": 1,
      "time": 0.625,
      "duration": 0.15
    },
    {
      "pitch": 81,
      "velocity": 50,
      "channel": 1,
      "time": 0.625,
      "duration": 0.15
    },
    {
      "pitch": 86,
      "velocity": 50,
      "channel": 1,
      "time": 0.625,
      "duration": 0.15
    },
    {
      "pitch": 36,
      "velocity": 53,
      "channel": 1,
      "time": 1.125,
      "duration": 0.15
    },
    {
      "pitch": 55,
      "velocity": 53,
      "channel": 1,
      "time": 1.125,
      "duration": 0.15
    },
    {
      "pitch": 57,
      "velocity": 53,
      "channel": 1,
      "time": 1.125,
      "duration": 0.15
    },
    {
      "pitch": 60,
      "velocity": 53,
      "channel": 1,
      "time": 1.125,
      "duration": 0.15
    },
    {
      "pitch": 62,
      "velocity": 53,
      "channel": 1,
      "time": 1.125,
      "duration": 0.15
    },
    {
      "pitch": 67,
      "velocity": 53,
      "channel": 1,
      "time": 1.125,
      "duration": 0.15
    },
    {
      "pitch": 74,
      "velocity": 53,
      "channel": 1,
      "time": 1.125,
      "duration": 0.15
    },
    {
      "pitch": 76,
      "velocity": 53,
      "channel": 1,
      "time": 1.125,
      "duration": 0.15
    },
    {
      "pitch": 81,
      "velocity": 53,
      "channel": 1,
      "time": 1.125,
      "duration": 0.15
    },
    {
      "pitch": 84,
      "velocity": 53,
      "channel": 1,
      "time": 1.125,
      "duration": 0.15
    },
    {
      "pitch": 86,
      "velocity": 53,
      "channel": 1,
      "time": 1.125,
      "duration": 0.15
    },
    {
      "pitch": 88,
      "velocity": 53,
      "channel": 1,
      "time": 1.125,
      "duration": 0.15
    },
    {
      "pitch": 91,
      "velocity": 53,
      "channel": 1,
      "time": 1.125,
      "duration": 0.15
    },
    {
      "pitch": 37,
      "velocity": 56,
      "channel": 1,
      "time": 1.625,
      "duration": 0.15
    },
    {
      "pitch": 39,
      "velocity": 56,
      "channel": 1,
      "time": 1.625,
      "duration": 0.15
    },
    {
      "pitch": 41,
      "velocity": 56,
      "channel": 1,
      "time": 1.625,
      "duration": 0.15
    },
    {
      "pitch": 44,
      "velocity": 56,
      "channel": 1,
      "time": 1.625,
      "duration": 0.15
    },
    {
      "pitch": 49,
      "velocity": 56,
      "channel": 1,
      "time": 1.625,
      "duration": 0.15
    },
    {
      "pitch": 51,
      "velocity": 56,
      "channel": 1,
      "time": 1.625,
      "duration": 0.15
    },
    {
      "pitch": 58,
      "velocity": 56,
      "channel": 1,
      "time": 1.625,
      "duration": 0.15
    },
    {
      "pitch": 87,
      "velocity": 56,
      "channel": 1,
      "time": 1.625,
      "duration": 0.15
    },
    {
      "pitch": 92,
      "velocity": 56,
      "channel": 1,
      "time": 1.625,
      "duration": 0.15
    },
    {
      "pitch": 37,
      "velocity": 59,
      "channel": 1,
      "time": 3.125,
      "duration": 0.15
    },
    {
      "pitch": 39,
      "velocity": 59,
      "channel": 1,
      "time": 3.125,
      "duration": 0.15
    },
    {
      "pitch": 41,
      "velocity": 59,
      "channel": 1,
      "time": 3.125,
      "duration": 0.15
    },
    {
      "pitch": 44,
      "velocity": 59,
      "channel": 1,
      "time": 3.125,
      "duration": 0.15
    },
    {
      "pitch": 49,
      "velocity": 59,
      "channel": 1,
      "time": 3.125,
      "duration": 0.15
    },
    {
      "pitch": 58,
      "velocity": 59,
      "channel": 1,
      "time": 3.125,
      "duration": 0.15
    },
    {
      "pitch": 61,
      "velocity": 59,
      "channel": 1,
      "time": 3.125,
      "duration": 0.15
    },
    {
      "pitch": 65,
      "velocity": 59,
      "channel": 1,
      "time": 3.125,
      "duration": 0.15
    },
    {
      "pitch": 68,
      "velocity": 59,
      "channel": 1,
      "time": 3.125,
      "duration": 0.15
    },
    {
      "pitch": 70,
      "velocity": 59,
      "channel": 1,
      "time": 3.125,
      "duration": 0.15
    },
    {
      "pitch": 75,
      "velocity": 59,
      "channel": 1,
      "time": 3.125,
      "duration": 0.15
    },
    {
      "pitch": 80,
      "velocity": 59,
      "channel": 1,
      "time": 3.125,
      "duration": 0.15
    },
    {
      "pitch": 82,
      "velocity": 59,
      "channel": 1,
      "time": 3.125,
      "duration": 0.15
    },
    {
      "pitch": 89,
      "velocity": 59,
      "channel": 1,
      "time": 3.125,
      "duration": 0.15
    },
    {
      "pitch": 38,
      "velocity": 62,
      "channel": 1,
      "time": 3.875,
      "duration": 0.15
    },
    {
      "pitch": 42,
      "velocity": 62,
      "channel": 1,
      "time": 3.875,
      "duration": 0.15
    },
    {
      "pitch": 47,
      "velocity": 62,
      "channel": 1,
      "time": 3.875,
      "duration": 0.15
    },
    {
      "pitch": 50,
      "velocity": 62,
      "channel": 1,
      "time": 3.875,
      "duration": 0.15
    },
    {
      "pitch": 52,
      "velocity": 62,
      "channel": 1,
      "time": 3.875,
      "duration": 0.15
    },
    {
      "pitch": 62,
      "velocity": 62,
      "channel": 1,
      "time": 3.875,
      "duration": 0.15
    },
    {
      "pitch": 66,
      "velocity": 62,
      "channel": 1,
      "time": 3.875,
      "duration": 0.15
    },
    {
      "pitch": 78,
      "velocity": 62,
      "channel": 1,
      "time": 3.875,
      "duration": 0.15
    },
    {
      "pitch": 86,
      "velocity": 62,
      "channel": 1,
      "time": 3.875,
      "duration": 0.15
    },
    {
      "pitch": 90,
      "velocity": 62,
      "channel": 1,
      "time": 3.875,
      "duration": 0.15
    },
    {
      "pitch": 93,
      "velocity": 62,
      "channel": 1,
      "time": 3.875,
      "duration": 0.15
    },
    {
      "pitch": 95,
      "velocity": 62,
      "channel": 1,
      "time": 3.875,
      "duration": 0.15
    },
    {
      "pitch": 52,
      "velocity": 65,
      "channel": 1,
      "time": 4.625,
      "duration": 0.15
    },
    {
      "pitch": 54,
      "velocity": 65,
      "channel": 1,
      "time": 4.625,
      "duration": 0.15
    },
    {
      "pitch": 59,
      "velocity": 65,
      "channel": 1,
      "time": 4.625,
      "duration": 0.15
    },
    {
      "pitch": 62,
      "velocity": 65,
      "channel": 1,
      "time": 4.625,
      "duration": 0.15
    },
    {
      "pitch": 64,
      "velocity": 65,
      "channel": 1,
      "time": 4.625,
      "duration": 0.15
    },
    {
      "pitch": 69,
      "velocity": 65,
      "channel": 1,
      "time": 4.625,
      "duration": 0.15
    },
    {
      "pitch": 71,
      "velocity": 65,
      "channel": 1,
      "time": 4.625,
      "duration": 0.15
    },
    {
      "pitch": 78,
      "velocity": 65,
      "channel": 1,
      "time": 4.625,
      "duration": 0.15
    },
    {
      "pitch": 81,
      "velocity": 65,
      "channel": 1,
      "time": 4.625,
      "duration": 0.15
    },
    {
      "pitch": 83,
      "velocity": 65,
      "channel": 1,
      "time": 4.625,
      "duration": 0.15
    },
    {
      "pitch": 90,
      "velocity": 65,
      "channel": 1,
      "time": 4.625,
      "duration": 0.15
    },
    {
      "pitch": 95,
      "velocity": 65,
      "channel": 1,
      "time": 4.625,
      "duration": 0.15
    },
    {
      "pitch": 39,
      "velocity": 68,
      "channel": 1,
      "time": 5.125,
      "duration": 0.15
    },
    {
      "pitch": 41,
      "velocity": 68,
      "channel": 1,
      "time": 5.125,
      "duration": 0.15
    },
    {
      "pitch": 43,
      "velocity": 68,
      "channel": 1,
      "time": 5.125,
      "duration": 0.15
    },
    {
      "pitch": 53,
      "velocity": 68,
      "channel": 1,
      "time": 5.125,
      "duration": 0.15
    },
    {
      "pitch": 55,
      "velocity": 68,
      "channel": 1,
      "time": 5.125,
      "duration": 0.15
    },
    {
      "pitch": 58,
      "velocity": 68,
      "channel": 1,
      "time": 5.125,
      "duration": 0.15
    },
    {
      "pitch": 60,
      "velocity": 68,
      "channel": 1,
      "time": 5.125,
      "duration": 0.15
    },
    {
      "pitch": 65,
      "velocity": 68,
      "channel": 1,
      "time": 5.125,
      "duration": 0.15
    },
    {
      "pitch": 67,
      "velocity": 68,
      "channel": 1,
      "time": 5.125,
      "duration": 0.15
    },
    {
      "pitch": 72,
      "velocity": 68,
      "channel": 1,
      "time": 5.125,
      "duration": 0.15
    },
    {
      "pitch": 75,
      "velocity": 68,
      "channel": 1,
      "time": 5.125,
      "duration": 0.15
    },
    {
      "pitch": 82,
      "velocity": 68,
      "channel": 1,
      "time": 5.125,
      "duration": 0.15
    },
    {
      "pitch": 84,
      "velocity": 68,
      "channel": 1,
      "time": 5.125,
      "duration": 0.15
    },
    {
      "pitch": 94,
      "velocity": 68,
      "channel": 1,
      "time": 5.125,
      "duration": 0.15
    },
    {
      "pitch": 43,
      "velocity": 71,
      "channel": 1,
      "time": 6.625,
      "duration": 0.15
    },
    {
      "pitch": 46,
      "velocity": 71,
      "channel": 1,
      "time": 6.625,
      "duration": 0.15
    },
    {
      "pitch": 53,
      "velocity": 71,
      "channel": 1,
      "time": 6.625,
      "duration": 0.15
    },
    {
      "pitch": 55,
      "velocity": 71,
      "channel": 1,
      "time": 6.625,
      "duration": 0.15
    },
    {
      "pitch": 60,
      "velocity": 71,
      "channel": 1,
      "time": 6.625,
      "duration": 0.15
    },
    {
      "pitch": 63,
      "velocity": 71,
      "channel": 1,
      "time": 6.625,
      "duration": 0.15
    },
    {
      "pitch": 65,
      "velocity": 71,
      "channel": 1,
      "time": 6.625,
      "duration": 0.15
    },
    {
      "pitch": 67,
      "velocity": 71,
      "channel": 1,
      "time": 6.625,
      "duration": 0.15
    },
    {
      "pitch": 70,
      "velocity": 71,
      "channel": 1,
      "time": 6.625,
      "duration": 0.15
    },
    {
      "pitch": 75,
      "velocity": 71,
      "channel": 1,
      "time": 6.625,
      "duration": 0.15
    },
    {
      "pitch": 79,
      "velocity": 71,
      "channel": 1,
      "time": 6.625,
      "duration": 0.15
    },
    {
      "pitch": 84,
      "velocity": 71,
      "channel": 1,
      "time": 6.625,
      "duration": 0.15
    },
    {
      "pitch": 89,
      "velocity": 71,
      "channel": 1,
      "time": 6.625,
      "duration": 0.15
    },
    {
      "pitch": 91,
      "velocity": 71,
      "channel": 1,
      "time": 6.625,
      "duration": 0.15
    },
    {
      "pitch": 37,
      "velocity": 74,
      "channel": 1,
      "time": 7.375,
      "duration": 0.15
    },
    {
      "pitch": 40,
      "velocity": 74,
      "channel": 1,
      "time": 7.375,
      "duration": 0.15
    },
    {
      "pitch": 44,
      "velocity": 74,
      "channel": 1,
      "time": 7.375,
      "duration": 0.15
    },
    {
      "pitch": 52,
      "velocity": 74,
      "channel": 1,
      "time": 7.375,
      "duration": 0.15
    },
    {
      "pitch": 54,
      "velocity": 74,
      "channel": 1,
      "time": 7.375,
      "duration": 0.15
    },
    {
      "pitch": 59,
      "velocity": 74,
      "channel": 1,
      "time": 7.375,
      "duration": 0.15
    },
    {
      "pitch": 61,
      "velocity": 74,
      "channel": 1,
      "time": 7.375,
      "duration": 0.15
    },
    {
      "pitch": 78,
      "velocity": 74,
      "channel": 1,
      "time": 7.375,
      "duration": 0.15
    },
    {
      "pitch": 85,
      "velocity": 74,
      "channel": 1,
      "time": 7.375,
      "duration": 0.15
    },
    {
      "pitch": 88,
      "velocity": 74,
      "channel": 1,
      "time": 7.375,
      "duration": 0.15
    },
    {
      "pitch": 47,
      "velocity": 77,
      "channel": 1,
      "time": 8.125,
      "duration": 0.15
    },
    {
      "pitch": 52,
      "velocity": 77,
      "channel": 1,
      "time": 8.125,
      "duration": 0.15
    },
    {
      "pitch": 54,
      "velocity": 77,
      "channel": 1,
      "time": 8.125,
      "duration": 0.15
    },
    {
      "pitch": 59,
      "velocity": 77,
      "channel": 1,
      "time": 8.125,
      "duration": 0.15
    },
    {
      "pitch": 61,
      "velocity": 77,
      "channel": 1,
      "time": 8.125,
      "duration": 0.15
    },
    {
      "pitch": 68,
      "velocity": 77,
      "channel": 1,
      "time": 8.125,
      "duration": 0.15
    },
    {
      "pitch": 71,
      "velocity": 77,
      "channel": 1,
      "time": 8.125,
      "duration": 0.15
    },
    {
      "pitch": 73,
      "velocity": 77,
      "channel": 1,
      "time": 8.125,
      "duration": 0.15
    },
    {
      "pitch": 76,
      "velocity": 77,
      "channel": 1,
      "time": 8.125,
      "duration": 0.15
    },
    {
      "pitch": 78,
      "velocity": 77,
      "channel": 1,
      "time": 8.125,
      "duration": 0.15
    },
    {
      "pitch": 83,
      "velocity": 77,
      "channel": 1,
      "time": 8.125,
      "duration": 0.15
    },
    {
      "pitch": 38,
      "velocity": 80,
      "channel": 1,
      "time": 9.625,
      "duration": 0.15
    },
    {
      "pitch": 53,
      "velocity": 80,
      "channel": 1,
      "time": 9.625,
      "duration": 0.15
    },
    {
      "pitch": 55,
      "velocity": 80,
      "channel": 1,
      "time": 9.625,
      "duration": 0.15
    },
    {
      "pitch": 57,
      "velocity": 80,
      "channel": 1,
      "time": 9.625,
      "duration": 0.15
    },
    {
      "pitch": 60,
      "velocity": 80,
      "channel": 1,
      "time": 9.625,
      "duration": 0.15
    },
    {
      "pitch": 62,
      "velocity": 80,
      "channel": 1,
      "time": 9.625,
      "duration": 0.15
    },
    {
      "pitch": 65,
      "velocity": 80,
      "channel": 1,
      "time": 9.625,
      "duration": 0.15
    },
    {
      "pitch": 69,
      "velocity": 80,
      "channel": 1,
      "time": 9.625,
      "duration": 0.15
    },
    {
      "pitch": 74,
      "velocity": 80,
      "channel": 1,
      "time": 9.625,
      "duration": 0.15
    },
    {
      "pitch": 79,
      "velocity": 80,
      "channel": 1,
      "time": 9.625,
      "duration": 0.15
    },
    {
      "pitch": 84,
      "velocity": 80,
      "channel": 1,
      "time": 9.625,
      "duration": 0.15
    },
    {
      "pitch": 86,
      "velocity": 80,
      "channel": 1,
      "time": 9.625,
      "duration": 0.15
    },
    {
      "pitch": 91,
      "velocity": 80,
      "channel": 1,
      "time": 9.625,
      "duration": 0.15
    },
    {
      "pitch": 38,
      "velocity": 83,
      "channel": 1,
      "time": 10.375,
      "duration": 0.15
    },
    {
      "pitch": 43,
      "velocity": 83,
      "channel": 1,
      "time": 10.375,
      "duration": 0.15
    },
    {
      "pitch": 45,
      "velocity": 83,
      "channel": 1,
      "time": 10.375,
      "duration": 0.15
    },
    {
      "pitch": 48,
      "velocity": 83,
      "channel": 1,
      "time": 10.375,
      "duration": 0.15
    },
    {
      "pitch": 57,
      "velocity": 83,
      "channel": 1,
      "time": 10.375,
      "duration": 0.15
    },
    {
      "pitch": 62,
      "velocity": 83,
      "channel": 1,
      "time": 10.375,
      "duration": 0.15
    },
    {
      "pitch": 65,
      "velocity": 83,
      "channel": 1,
      "time": 10.375,
      "duration": 0.15
    },
    {
      "pitch": 69,
      "velocity": 83,
      "channel": 1,
      "time": 10.375,
      "duration": 0.15
    },
    {
      "pitch": 77,
      "velocity": 83,
      "channel": 1,
      "time": 10.375,
      "duration": 0.15
    },
    {
      "pitch": 84,
      "velocity": 83,
      "channel": 1,
      "time": 10.375,
      "duration": 0.15
    },
    {
      "pitch": 86,
      "velocity": 83,
      "channel": 1,
      "time": 10.375,
      "duration": 0.15
    },
    {
      "pitch": 91,
      "velocity": 83,
      "channel": 1,
      "time": 10.375,
      "duration": 0.15
    },
    {
      "pitch": 39,
      "velocity": 86,
      "channel": 1,
      "time": 10.875,
      "duration": 0.15
    },
    {
      "pitch": 44,
      "velocity": 86,
      "channel": 1,
      "time": 10.875,
      "duration": 0.15
    },
    {
      "pitch": 54,
      "velocity": 86,
      "channel": 1,
      "time": 10.875,
      "duration": 0.15
    },
    {
      "pitch": 56,
      "velocity": 86,
      "channel": 1,
      "time": 10.875,
      "duration": 0.15
    },
    {
      "pitch": 61,
      "velocity": 86,
      "channel": 1,
      "time": 10.875,
      "duration": 0.15
    },
    {
      "pitch": 63,
      "velocity": 86,
      "channel": 1,
      "time": 10.875,
      "duration": 0.15
    },
    {
      "pitch": 68,
      "velocity": 86,
      "channel": 1,
      "time": 10.875,
      "duration": 0.15
    },
    {
      "pitch": 70,
      "velocity": 86,
      "channel": 1,
      "time": 10.875,
      "duration": 0.15
    },
    {
      "pitch": 73,
      "velocity": 86,
      "channel": 1,
      "time": 10.875,
      "duration": 0.15
    },
    {
      "pitch": 78,
      "velocity": 86,
      "channel": 1,
      "time": 10.875,
      "duration": 0.15
    },
    {
      "pitch": 87,
      "velocity": 86,
      "channel": 1,
      "time": 10.875,
      "duration": 0.15
    },
    {
      "pitch": 90,
      "velocity": 86,
      "channel": 1,
      "time": 10.875,
      "duration": 0.15
    },
    {
      "pitch": 92,
      "velocity": 86,
      "channel": 1,
      "time": 10.875,
      "duration": 0.15
    },
    {
      "pitch": 94,
      "velocity": 86,
      "channel": 1,
      "time": 10.875,
      "duration": 0.15
    },
    {
      "pitch": 37,
      "velocity": 89,
      "channel": 1,
      "time": 11.375,
      "duration": 0.15
    },
    {
      "pitch": 39,
      "velocity": 89,
      "channel": 1,
      "time": 11.375,
      "duration": 0.15
    },
    {
      "pitch": 44,
      "velocity": 89,
      "channel": 1,
      "time": 11.375,
      "duration": 0.15
    },
    {
      "pitch": 51,
      "velocity": 89,
      "channel": 1,
      "time": 11.375,
      "duration": 0.15
    },
    {
      "pitch": 58,
      "velocity": 89,
      "channel": 1,
      "time": 11.375,
      "duration": 0.15
    },
    {
      "pitch": 63,
      "velocity": 89,
      "channel": 1,
      "time": 11.375,
      "duration": 0.15
    },
    {
      "pitch": 66,
      "velocity": 89,
      "channel": 1,
      "time": 11.375,
      "duration": 0.15
    },
    {
      "pitch": 73,
      "velocity": 89,
      "channel": 1,
      "time": 11.375,
      "duration": 0.15
    },
    {
      "pitch": 78,
      "velocity": 89,
      "channel": 1,
      "time": 11.375,
      "duration": 0.15
    },
    {
      "pitch": 80,
      "velocity": 89,
      "channel": 1,
      "time": 11.375,
      "duration": 0.15
    },
    {
      "pitch": 82,
      "velocity": 89,
      "channel": 1,
      "time": 11.375,
      "duration": 0.15
    },
    {
      "pitch": 90,
      "velocity": 89,
      "channel": 1,
      "time": 11.375,
      "duration": 0.15
    },
    {
      "pitch": 94,
      "velocity": 89,
      "channel": 1,
      "time": 11.375,
      "duration": 0.15
    },
    {
      "pitch": 38,
      "velocity": 92,
      "channel": 1,
      "time": 11.875,
      "duration": 0.15
    },
    {
      "pitch": 43,
      "velocity": 92,
      "channel": 1,
      "time": 11.875,
      "duration": 0.15
    },
    {
      "pitch": 47,
      "velocity": 92,
      "channel": 1,
      "time": 11.875,
      "duration": 0.15
    },
    {
      "pitch": 55,
      "velocity": 92,
      "channel": 1,
      "time": 11.875,
      "duration": 0.15
    },
    {
      "pitch": 59,
      "velocity": 92,
      "channel": 1,
      "time": 11.875,
      "duration": 0.15
    },
    {
      "pitch": 69,
      "velocity": 92,
      "channel": 1,
      "time": 11.875,
      "duration": 0.15
    },
    {
      "pitch": 74,
      "velocity": 92,
      "channel": 1,
      "time": 11.875,
      "duration": 0.15
    },
    {
      "pitch": 79,
      "velocity": 92,
      "channel": 1,
      "time": 11.875,
      "duration": 0.15
    },
    {
      "pitch": 86,
      "velocity": 92,
      "channel": 1,
      "time": 11.875,
      "duration": 0.15
    },
    {
      "pitch": 88,
      "velocity": 92,
      "channel": 1,
      "time": 11.875,
      "duration": 0.15
    },
    {
      "pitch": 93,
      "velocity": 92,
      "channel": 1,
      "time": 11.875,
      "duration": 0.15
    },
    {
      "pitch": 95,
      "velocity": 92,
      "channel": 1,
      "time": 11.875,
      "duration": 0.15
    },
    {
      "pitch": 43,
      "velocity": 95,
      "channel": 1,
      "time": 12.625,
      "duration": 0.15
    },
    {
      "pitch": 47,
      "velocity": 95,
      "channel": 1,
      "time": 12.625,
      "duration": 0.15
    },
    {
      "pitch": 64,
      "velocity": 95,
      "channel": 1,
      "time": 12.625,
      "duration": 0.15
    },
    {
      "pitch": 67,
      "velocity": 95,
      "channel": 1,
      "time": 12.625,
      "duration": 0.15
    },
    {
      "pitch": 71,
      "velocity": 95,
      "channel": 1,
      "time": 12.625,
      "duration": 0.15
    },
    {
      "pitch": 74,
      "velocity": 95,
      "channel": 1,
      "time": 12.625,
      "duration": 0.15
    },
    {
      "pitch": 76,
      "velocity": 95,
      "channel": 1,
      "time": 12.625,
      "duration": 0.15
    },
    {
      "pitch": 79,
      "velocity": 95,
      "channel": 1,
      "time": 12.625,
      "duration": 0.15
    },
    {
      "pitch": 81,
      "velocity": 95,
      "channel": 1,
      "time": 12.625,
      "duration": 0.15
    },
    {
      "pitch": 83,
      "velocity": 95,
      "channel": 1,
      "time": 12.625,
      "duration": 0.15
    },
    {
      "pitch": 86,
      "velocity": 95,
      "channel": 1,
      "time": 12.625,
      "duration": 0.15
    },
    {
      "pitch": 91,
      "velocity": 95,
      "channel": 1,
      "time": 12.625,
      "duration": 0.15
    },
    {
      "pitch": 39,
      "velocity": 98,
      "channel": 1,
      "time": 13.125,
      "duration": 0.15
    },
    {
      "pitch": 41,
      "velocity": 98,
      "channel": 1,
      "time": 13.125,
      "duration": 0.15
    },
    {
      "pitch": 46,
      "velocity": 98,
      "channel": 1,
      "time": 13.125,
      "duration": 0.15
    },
    {
      "pitch": 48,
      "velocity": 98,
      "channel": 1,
      "time": 13.125,
      "duration": 0.15
    },
    {
      "pitch": 51,
      "velocity": 98,
      "channel": 1,
      "time": 13.125,
      "duration": 0.15
    },
    {
      "pitch": 56,
      "velocity": 98,
      "channel": 1,
      "time": 13.125,
      "duration": 0.15
    },
    {
      "pitch": 58,
      "velocity": 98,
      "channel": 1,
      "time": 13.125,
      "duration": 0.15
    },
    {
      "pitch": 60,
      "velocity": 98,
      "channel": 1,
      "time": 13.125,
      "duration": 0.15
    },
    {
      "pitch": 63,
      "velocity": 98,
      "channel": 1,
      "time": 13.125,
      "duration": 0.15
    },
    {
      "pitch": 89,
      "velocity": 98,
      "channel": 1,
      "time": 13.125,
      "duration": 0.15
    },
    {
      "pitch": 92,
      "velocity": 98,
      "channel": 1,
      "time": 13.125,
      "duration": 0.15
    },
    {
      "pitch": 94,
      "velocity": 98,
      "channel": 1,
      "time": 13.125,
      "duration": 0.15
    }
  ]
}