{"bpm":100,"notes":[{"pitch":36,"velocity":50,"channel":1,"time":0,"duration":0.15},{"pitch":43,"velocity":50,"channel":1,"time":0.041666666666666664,"duration":0.15},{"pitch":45,"velocity":50,"channel":1,"time":0.08333333333333333,"duration":0.15},{"pitch":50,"velocity":50,"channel":1,"time":0.125,"duration":0.15},{"pitch":57,"velocity":50,"channel":1,"time":0.16666666666666666,"duration":0.15},{"pitch":60,"velocity":50,"channel":1,"time":0.20833333333333334,"duration":0.15},{"pitch":67,"velocity":50,"channel":1,"time":0.25,"duration":0.15},{"pitch":74,"velocity":50,"channel":1,"time":0.2916666666666667,"duration":0.15},{"pitch":76,"velocity":50,"channel":1,"time":0.3333333333333333,"duration":0.15},{"pitch":81,"velocity":50,"channel":1,"time":0.375,"duration":0.15},{"pitch":84,"velocity":50,"channel":1,"time":0.4166666666666667,"duration":0.15},{"pitch":86,"velocity":50,"channel":1,"time":0.4583333333333333,"duration":0.15},{"pitch":88,"velocity":50,"channel":1,"time":0.5,"duration":0.15},{"pitch":91,"velocity":50,"channel":1,"time":0.5416666666666666,"duration":0.15},{"velocity":50,"channel":1,"time":0.5833333333333334,"duration":0.15},{"velocity":50,"channel":1,"time":0.625,"duration":0.15},{"pitch":36,"velocity":53,"channel":1,"time":0.75,"duration":0.15},{"pitch":40,"velocity":53,"channel":1,"time":0.7916666666666666,"duration":0.15},{"pitch":43,"velocity":53,"channel":1,"time":0.8333333333333334,"duration":0.15},{"pitch":60,"velocity":53,"channel":1,"time":0.875,"duration":0.15},{"pitch":64,"velocity":53,"channel":1,"time":0.9166666666666666,"duration":0.15},{"pitch":67,"velocity":53,"channel":1,"time":0.9583333333333334,"duration":0.15},{"pitch":69,"velocity":53,"channel":1,"time":1,"duration":0.15},{"pitch":72,"velocity":53,"channel":1,"time":1.0416666666666667,"duration":0.15},{"pitch":74,"velocity":53,"channel":1,"time":1.0833333333333333,"duration":0.15},{"pitch":76,"velocity":53,"channel":1,"time":1.125,"duration":0.15},{"pitch":79,"velocity":53,"channel":1,"time":1.1666666666666667,"duration":0.15},{"pitch":84,"velocity":53,"channel":1,"time":1.2083333333333333,"duration":0.15},{"velocity":53,"channel":1,"time":1.25,"duration":0.15},{"velocity":53,"channel":1,"time":1.2916666666666665,"duration":0.15},{"velocity":53,"channel":1,"time":1.3333333333333335,"duration":0.15},{"velocity":53,"channel":1,"time":1.375,"duration":0.15},{"pitch":51,"velocity":56,"channel":1,"time":1.25,"duration":0.15},{"pitch":54,"velocity":56,"channel":1,"time":1.2916666666666667,"duration":0.15},{"pitch":56,"velocity":56,"channel":1,"time":1.3333333333333333,"duration":0.15},{"pitch":71,"velocity":56,"channel":1,"time":1.375,"duration":0.15},{"pitch":73,"velocity":56,"channel":1,"time":1.4166666666666667,"duration":0.15},{"pitch":75,"velocity":56,"channel":1,"time":1.4583333333333333,"duration":0.15},{"pitch":78,"velocity":56,"channel":1,"time":1.5,"duration":0.15},{"pitch":85,"velocity":56,"channel":1,"time":1.5416666666666667,"duration":0.15},{"pitch":95,"velocity":56,"channel":1,"time":1.5833333333333333,"duration":0.15},{"velocity":56,"channel":1,"time":1.625,"duration":0.15},{"velocity":56,"channel":1,"time":1.6666666666666667,"duration":0.15},{"velocity":56,"channel":1,"time":1.7083333333333333,"duration":0.15},{"velocity":56,"channel":1,"time":1.75,"duration":0.15},{"velocity":56,"channel":1,"time":1.7916666666666665,"duration":0.15},{"velocity":56,"channel":1,"time":1.8333333333333335,"duration":0.15},{"velocity":56,"channel":1,"time":1.875,"duration":0.15},{"pitch":39,"velocity":59,"channel":1,"time":2,"duration":0.15},{"pitch":42,"velocity":59,"channel":1,"time":2.0416666666666665,"duration":0.15},{"pitch":44,"velocity":59,"channel":1,"time":2.0833333333333335,"duration":0.15},{"pitch":47,"velocity":59,"channel":1,"time":2.125,"duration":0.15},{"pitch":54,"velocity":59,"channel":1,"time":2.1666666666666665,"duration":0.15},{"pitch":59,"velocity":59,"channel":1,"time":2.2083333333333335,"duration":0.15},{"pitch":71,"velocity":59,"channel":1,"time":2.25,"duration":0.15},{"pitch":73,"velocity":59,"channel":1,"time":2.2916666666666665,"duration":0.15},{"pitch":95,"velocity":59,"channel":1,"time":2.3333333333333335,"duration":0.15},{"velocity":59,"channel":1,"time":2.375,"duration":0.15},{"velocity":59,"channel":1,"time":2.4166666666666665,"duration":0.15},{"velocity":59,"channel":1,"time":2.4583333333333335,"duration":0.15},{"velocity":59,"channel":1,"time":2.5,"duration":0.15},{"velocity":59,"channel":1,"time":2.5416666666666665,"duration":0.15},{"velocity":59,"channel":1,"time":2.5833333333333335,"duration":0.15},{"velocity":59,"channel":1,"time":2.625,"duration":0.15},{"pitch":41,"velocity":62,"channel":1,"time":3.5,"duration":0.15},{"pitch":55,"velocity":62,"channel":1,"time":3.5416666666666665,"duration":0.15},{"pitch":60,"velocity":62,"channel":1,"time":3.5833333333333335,"duration":0.15},{"pitch":62,"velocity":62,"channel":1,"time":3.625,"duration":0.15},{"pitch":65,"velocity":62,"channel":1,"time":3.6666666666666665,"duration":0.15},{"pitch":67,"velocity":62,"channel":1,"time":3.7083333333333335,"duration":0.15},{"pitch":70,"velocity":62,"channel":1,"time":3.75,"duration":0.15},{"pitch":82,"velocity":62,"channel":1,"time":3.7916666666666665,"duration":0.15},{"pitch":86,"velocity":62,"channel":1,"time":3.8333333333333335,"duration":0.15},{"velocity":62,"channel":1,"time":3.875,"duration":0.15},{"velocity":62,"channel":1,"time":3.9166666666666665,"duration":0.15},{"velocity":62,"channel":1,"time":3.9583333333333335,"duration":0.15},{"velocity":62,"channel":1,"time":4,"duration":0.15},{"velocity":62,"channel":1,"time":4.041666666666667,"duration":0.15},{"velocity":62,"channel":1,"time":4.083333333333333,"duration":0.15},{"velocity":62,"channel":1,"time":4.125,"duration":0.15},{"pitch":36,"velocity":65,"channel":1,"time":4.25,"duration":0.15},{"pitch":38,"velocity":65,"channel":1,"time":4.291666666666667,"duration":0.15},{"pitch":41,"velocity":65,"channel":1,"time":4.333333333333333,"duration":0.15},{"pitch":43,"velocity":65,"channel":1,"time":4.375,"duration":0.15},{"pitch":48,"velocity":65,"channel":1,"time":4.416666666666667,"duration":0.15},{"pitch":50,"velocity":65,"channel":1,"time":4.458333333333333,"duration":0.15},{"pitch":55,"velocity":65,"channel":1,"time":4.5,"duration":0.15},{"pitch":58,"velocity":65,"channel":1,"time":4.541666666666667,"duration":0.15},{"pitch":67,"velocity":65,"channel":1,"time":4.583333333333333,"duration":0.15},{"pitch":70,"velocity":65,"channel":1,"time":4.625,"duration":0.15},{"pitch":77,"velocity":65,"channel":1,"time":4.666666666666667,"duration":0.15},{"pitch":86,"velocity":65,"channel":1,"time":4.708333333333333,"duration":0.15},{"pitch":89,"velocity":65,"channel":1,"time":4.75,"duration":0.15},{"velocity":65,"channel":1,"time":4.791666666666667,"duration":0.15},{"velocity":65,"channel":1,"time":4.833333333333333,"duration":0.15},{"velocity":65,"channel":1,"time":4.875,"duration":0.15},{"pitch":37,"velocity":68,"channel":1,"time":5.75,"duration":0.15},{"pitch":42,"velocity":68,"channel":1,"time":5.791666666666667,"duration":0.15},{"pitch":49,"velocity":68,"channel":1,"time":5.833333333333333,"duration":0.15},{"pitch":52,"velocity":68,"channel":1,"time":5.875,"duration":0.15},{"pitch":57,"velocity":68,"channel":1,"time":5.916666666666667,"duration":0.15},{"pitch":64,"velocity":68,"channel":1,"time":5.958333333333333,"duration":0.15},{"pitch":66,"velocity":68,"channel":1,"time":6,"duration":0.15},{"pitch":71,"velocity":68,"channel":1,"time":6.041666666666667,"duration":0.15},{"pitch":76,"velocity":68,"channel":1,"time":6.083333333333333,"duration":0.15},{"pitch":78,"velocity":68,"channel":1,"time":6.125,"duration":0.15},{"pitch":85,"velocity":68,"channel":1,"time":6.166666666666667,"duration":0.15},{"pitch":90,"velocity":68,"channel":1,"time":6.208333333333333,"duration":0.15},{"pitch":93,"velocity":68,"channel":1,"time":6.25,"duration":0.15},{"velocity":68,"channel":1,"time":6.291666666666667,"duration":0.15},{"velocity":68,"channel":1,"time":6.333333333333333,"duration":0.15},{"velocity":68,"channel":1,"time":6.375,"duration":0.15},{"pitch":40,"velocity":71,"channel":1,"time":7.25,"duration":0.15},{"pitch":42,"velocity":71,"channel":1,"time":7.291666666666667,"duration":0.15},{"pitch":45,"velocity":71,"channel":1,"time":7.333333333333333,"duration":0.15},{"pitch":49,"velocity":71,"channel":1,"time":7.375,"duration":0.15},{"pitch":52,"velocity":71,"channel":1,"time":7.416666666666667,"duration":0.15},{"pitch":73,"velocity":71,"channel":1,"time":7.458333333333333,"duration":0.15},{"pitch":81,"velocity":71,"channel":1,"time":7.5,"duration":0.15},{"pitch":83,"velocity":71,"channel":1,"time":7.541666666666667,"duration":0.15},{"pitch":85,"velocity":71,"channel":1,"time":7.583333333333333,"duration":0.15},{"pitch":95,"velocity":71,"channel":1,"time":7.625,"duration":0.15},{"velocity":71,"channel":1,"time":7.666666666666667,"duration":0.15},{"velocity":71,"channel":1,"time":7.708333333333333,"duration":0.15},{"velocity":71,"channel":1,"time":7.75,"duration":0.15},{"velocity":71,"channel":1,"time":7.791666666666667,"duration":0.15},{"velocity":71,"channel":1,"time":7.833333333333333,"duration":0.15},{"velocity":71,"channel":1,"time":7.875,"duration":0.15},{"pitch":36,"velocity":74,"channel":1,"time":8,"duration":0.15},{"pitch":44,"velocity":74,"channel":1,"time":8.041666666666666,"duration":0.15},{"pitch":53,"velocity":74,"channel":1,"time":8.083333333333334,"duration":0.15},{"pitch":56,"velocity":74,"channel":1,"time":8.125,"duration":0.15},{"pitch":60,"velocity":74,"channel":1,"time":8.166666666666666,"duration":0.15},{"pitch":63,"velocity":74,"channel":1,"time":8.208333333333334,"duration":0.15},{"pitch":75,"velocity":74,"channel":1,"time":8.25,"duration":0.15},{"pitch":77,"velocity":74,"channel":1,"time":8.291666666666666,"duration":0.15},{"pitch":80,"velocity":74,"channel":1,"time":8.333333333333334,"duration":0.15},{"pitch":82,"velocity":74,"channel":1,"time":8.375,"duration":0.15},{"pitch":89,"velocity":74,"channel":1,"time":8.416666666666666,"duration":0.15},{"pitch":92,"velocity":74,"channel":1,"time":8.458333333333334,"duration":0.15},{"pitch":94,"velocity":74,"channel":1,"time":8.5,"duration":0.15},{"velocity":74,"channel":1,"time":8.541666666666666,"duration":0.15},{"velocity":74,"channel":1,"time":8.583333333333334,"duration":0.15},{"velocity":74,"channel":1,"time":8.625,"duration":0.15},{"pitch":36,"velocity":77,"channel":1,"time":8.75,"duration":0.15},{"pitch":46,"velocity":77,"channel":1,"time":8.791666666666666,"duration":0.15},{"pitch":48,"velocity":77,"channel":1,"time":8.833333333333334,"duration":0.15},{"pitch":51,"velocity":77,"channel":1,"time":8.875,"duration":0.15},{"pitch":58,"velocity":77,"channel":1,"time":8.916666666666666,"duration":0.15},{"pitch":60,"velocity":77,"channel":1,"time":8.958333333333334,"duration":0.15},{"pitch":65,"velocity":77,"channel":1,"time":9,"duration":0.15},{"pitch":72,"velocity":77,"channel":1,"time":9.041666666666666,"duration":0.15},{"pitch":75,"velocity":77,"channel":1,"time":9.083333333333334,"duration":0.15},{"pitch":89,"velocity":77,"channel":1,"time":9.125,"duration":0.15},{"pitch":92,"velocity":77,"channel":1,"time":9.166666666666666,"duration":0.15},{"pitch":94,"velocity":77,"channel":1,"time":9.208333333333334,"duration":0.15},{"velocity":77,"channel":1,"time":9.25,"duration":0.15},{"velocity":77,"channel":1,"time":9.291666666666666,"duration":0.15},{"velocity":77,"channel":1,"time":9.333333333333334,"duration":0.15},{"velocity":77,"channel":1,"time":9.375,"duration":0.15},{"pitch":38,"velocity":80,"channel":1,"time":9.5,"duration":0.15},{"pitch":40,"velocity":80,"channel":1,"time":9.541666666666666,"duration":0.15},{"pitch":43,"velocity":80,"channel":1,"time":9.583333333333334,"duration":0.15},{"pitch":55,"velocity":80,"channel":1,"time":9.625,"duration":0.15},{"pitch":62,"velocity":80,"channel":1,"time":9.666666666666666,"duration":0.15},{"pitch":64,"velocity":80,"channel":1,"time":9.708333333333334,"duration":0.15},{"pitch":67,"velocity":80,"channel":1,"time":9.75,"duration":0.15},{"pitch":83,"velocity":80,"channel":1,"time":9.791666666666666,"duration":0.15},{"pitch":86,"velocity":80,"channel":1,"time":9.833333333333334,"duration":0.15},{"pitch":93,"velocity":80,"channel":1,"time":9.875,"duration":0.15},{"pitch":95,"velocity":80,"channel":1,"time":9.916666666666666,"duration":0.15},{"velocity":80,"channel":1,"time":9.958333333333334,"duration":0.15},{"velocity":80,"channel":1,"time":10,"duration":0.15},{"velocity":80,"channel":1,"time":10.041666666666666,"duration":0.15},{"velocity":80,"channel":1,"time":10.083333333333334,"duration":0.15},{"velocity":80,"channel":1,"time":10.125,"duration":0.15},{"pitch":38,"velocity":83,"channel":1,"time":10.25,"duration":0.15},{"pitch":40,"velocity":83,"channel":1,"time":10.291666666666666,"duration":0.15},{"pitch":45,"velocity":83,"channel":1,"time":10.333333333333334,"duration":0.15},{"pitch":50,"velocity":83,"channel":1,"time":10.375,"duration":0.15},{"pitch":52,"velocity":83,"channel":1,"time":10.416666666666666,"duration":0.15},{"pitch":74,"velocity":83,"channel":1,"time":10.458333333333334,"duration":0.15},{"pitch":76,"velocity":83,"channel":1,"time":10.5,"duration":0.15},{"pitch":81,"velocity":83,"channel":1,"time":10.541666666666666,"duration":0.15},{"pitch":88,"velocity":83,"channel":1,"time":10.583333333333334,"duration":0.15},{"pitch":91,"velocity":83,"channel":1,"time":10.625,"duration":0.15},{"velocity":83,"channel":1,"time":10.666666666666666,"duration":0.15},{"velocity":83,"channel":1,"time":10.708333333333334,"duration":0.15},{"velocity":83,"channel":1,"time":10.75,"duration":0.15},{"velocity":83,"channel":1,"time":10.791666666666666,"duration":0.15},{"velocity":83,"channel":1,"time":10.833333333333334,"duration":0.15},{"velocity":83,"channel":1,"time":10.875,"duration":0.15},{"pitch":44,"velocity":86,"channel":1,"time":11,"duration":0.15},{"pitch":51,"velocity":86,"channel":1,"time":11.041666666666666,"duration":0.15},{"pitch":54,"velocity":86,"channel":1,"time":11.083333333333334,"duration":0.15},{"pitch":56,"velocity":86,"channel":1,"time":11.125,"duration":0.15},{"pitch":58,"velocity":86,"channel":1,"time":11.166666666666666,"duration":0.15},{"pitch":63,"velocity":86,"channel":1,"time":11.208333333333334,"duration":0.15},{"pitch":66,"velocity":86,"channel":1,"time":11.25,"duration":0.15},{"pitch":70,"velocity":86,"channel":1,"time":11.291666666666666,"duration":0.15},{"pitch":73,"velocity":86,"channel":1,"time":11.333333333333334,"duration":0.15},{"pitch":75,"velocity":86,"channel":1,"time":11.375,"duration":0.15},{"pitch":80,"velocity":86,"channel":1,"time":11.416666666666666,"duration":0.15},{"pitch":92,"velocity":86,"channel":1,"time":11.458333333333334,"duration":0.15},{"pitch":94,"velocity":86,"channel":1,"time":11.5,"duration":0.15},{"velocity":86,"channel":1,"time":11.541666666666666,"duration":0.15},{"velocity":86,"channel":1,"time":11.583333333333334,"duration":0.15},{"velocity":86,"channel":1,"time":11.625,"duration":0.15},{"pitch":37,"velocity":89,"channel":1,"time":12.5,"duration":0.15},{"pitch":46,"velocity":89,"channel":1,"time":12.541666666666666,"duration":0.15},{"pitch":51,"velocity":89,"channel":1,"time":12.583333333333334,"duration":0.15},{"pitch":54,"velocity":89,"channel":1,"time":12.625,"duration":0.15},{"pitch":56,"velocity":89,"channel":1,"time":12.666666666666666,"duration":0.15},{"pitch":58,"velocity":89,"channel":1,"time":12.708333333333334,"duration":0.15},{"pitch":73,"velocity":89,"channel":1,"time":12.75,"duration":0.15},{"pitch":75,"velocity":89,"channel":1,"time":12.791666666666666,"duration":0.15},{"pitch":78,"velocity":89,"channel":1,"time":12.833333333333334,"duration":0.15},{"pitch":80,"velocity":89,"channel":1,"time":12.875,"duration":0.15},{"pitch":90,"velocity":89,"channel":1,"time":12.916666666666666,"duration":0.15},{"velocity":89,"channel":1,"time":12.958333333333334,"duration":0.15},{"velocity":89,"channel":1,"time":13,"duration":0.15},{"velocity":89,"channel":1,"time":13.041666666666666,"duration":0.15},{"velocity":89,"channel":1,"time":13.083333333333334,"duration":0.15},{"velocity":89,"channel":1,"time":13.125,"duration":0.15},{"pitch":36,"velocity":92,"channel":1,"time":14,"duration":0.15},{"pitch":38,"velocity":92,"channel":1,"time":14.041666666666666,"duration":0.15},{"pitch":41,"velocity":92,"channel":1,"time":14.083333333333334,"duration":0.15},{"pitch":43,"velocity":92,"channel":1,"time":14.125,"duration":0.15},{"pitch":48,"velocity":92,"channel":1,"time":14.166666666666666,"duration":0.15},{"pitch":53,"velocity":92,"channel":1,"time":14.208333333333334,"duration":0.15},{"pitch":67,"velocity":92,"channel":1,"time":14.25,"duration":0.15},{"pitch":79,"velocity":92,"channel":1,"time":14.291666666666666,"duration":0.15},{"pitch":81,"velocity":92,"channel":1,"time":14.333333333333334,"duration":0.15},{"pitch":84,"velocity":92,"channel":1,"time":14.375,"duration":0.15},{"pitch":91,"velocity":92,"channel":1,"time":14.416666666666666,"duration":0.15},{"pitch":93,"velocity":92,"channel":1,"time":14.458333333333334,"duration":0.15},{"velocity":92,"channel":1,"time":14.5,"duration":0.15},{"velocity":92,"channel":1,"time":14.541666666666666,"duration":0.15},{"velocity":92,"channel":1,"time":14.583333333333334,"duration":0.15},{"velocity":92,"channel":1,"time":14.625,"duration":0.15},{"pitch":38,"velocity":95,"channel":1,"time":14.75,"duration":0.15},{"pitch":43,"velocity":95,"channel":1,"time":14.791666666666666,"duration":0.15},{"pitch":48,"velocity":95,"channel":1,"time":14.833333333333334,"duration":0.15},{"pitch":55,"velocity":95,"channel":1,"time":14.875,"duration":0.15},{"pitch":57,"velocity":95,"channel":1,"time":14.916666666666666,"duration":0.15},{"pitch":62,"velocity":95,"channel":1,"time":14.958333333333334,"duration":0.15},{"pitch":69,"velocity":95,"channel":1,"time":15,"duration":0.15},{"pitch":72,"velocity":95,"channel":1,"time":15.041666666666666,"duration":0.15},{"pitch":81,"velocity":95,"channel":1,"time":15.083333333333334,"duration":0.15},{"pitch":84,"velocity":95,"channel":1,"time":15.125,"duration":0.15},{"pitch":91,"velocity":95,"channel":1,"time":15.166666666666666,"duration":0.15},{"pitch":93,"velocity":95,"channel":1,"time":15.208333333333334,"duration":0.15},{"velocity":95,"channel":1,"time":15.25,"duration":0.15},{"velocity":95,"channel":1,"time":15.291666666666666,"duration":0.15},{"velocity":95,"channel":1,"time":15.333333333333334,"duration":0.15},{"velocity":95,"channel":1,"time":15.375,"duration":0.15},{"pitch":52,"velocity":98,"channel":1,"time":15.5,"duration":0.15},{"pitch":54,"velocity":98,"channel":1,"time":15.541666666666666,"duration":0.15},{"pitch":59,"velocity":98,"channel":1,"time":15.583333333333334,"duration":0.15},{"pitch":61,"velocity":98,"channel":1,"time":15.625,"duration":0.15},{"pitch":66,"velocity":98,"channel":1,"time":15.666666666666666,"duration":0.15},{"pitch":68,"velocity":98,"channel":1,"time":15.708333333333334,"duration":0.15},{"pitch":76,"velocity":98,"channel":1,"time":15.75,"duration":0.15},{"pitch":78,"velocity":98,"channel":1,"time":15.791666666666666,"duration":0.15},{"pitch":80,"velocity":98,"channel":1,"time":15.833333333333334,"duration":0.15},{"pitch":85,"velocity":98,"channel":1,"time":15.875,"duration":0.15},{"velocity":98,"channel":1,"time":15.916666666666666,"duration":0.15},{"velocity":98,"channel":1,"time":15.958333333333334,"duration":0.15},{"velocity":98,"channel":1,"time":16,"duration":0.15},{"velocity":98,"channel":1,"time":16.041666666666668,"duration":0.15},{"velocity":98,"channel":1,"time":16.083333333333332,"duration":0.15},{"velocity":98,"channel":1,"time":16.125,"duration":0.15}]}